<svg xmlns="http://www.w3.org/2000/svg" width="60.06" height="37.29" viewBox="0 0 182 113">
  <defs>
    <style>
      .cls-1 {
        fill: #314584;
        fill-rule: evenodd;
      }

      .cls-2 {
        fill: #ff3946;
      }
    </style>
  </defs>
  <path id="DIS" class="cls-1" d="M12.972,92.313H32.625q10.68,0,18.28-3.723A25.915,25.915,0,0,0,62.471,77.725q3.967-7.141,3.967-17.212V35.367q0-10.071-3.967-17.212A25.954,25.954,0,0,0,50.936,7.291Q43.367,3.568,32.686,3.567H12.972V15.408H33.052q9.826,0,15.228,5.1t5.4,14.374V61q0,9.278-5.4,14.374t-15.228,5.1H12.972V92.313Zm-8.423,0H17V3.567H4.549V92.313ZM97.811,3.567H85.359V92.313H97.811V3.567Zm48.645,89.661a45.971,45.971,0,0,0,17.608-3.021A23.961,23.961,0,0,0,175.2,81.418a24.45,24.45,0,0,0,3.845-13.885V67.41q0-8.728-3.631-13.763a21.007,21.007,0,0,0-9.033-7.294,73.754,73.754,0,0,0-13.459-3.906c-0.2-.04-0.427-0.081-0.671-0.122s-0.468-.081-0.671-0.122c-0.164-.04-0.316-0.07-0.458-0.091a4.309,4.309,0,0,1-.458-0.092,97.327,97.327,0,0,1-10.773-2.594,15.686,15.686,0,0,1-6.469-3.876,9.794,9.794,0,0,1-2.594-7.2V28.287A11.933,11.933,0,0,1,135.866,18Q140.9,14.372,150,14.371a28.958,28.958,0,0,1,10.1,1.862,41.45,41.45,0,0,1,10.1,5.585l7.08-9.888a52.413,52.413,0,0,0-8.819-5.157,46.627,46.627,0,0,0-9.095-3.082,46.66,46.66,0,0,0-26.4,2.014,23.2,23.2,0,0,0-10.773,8.881A25.75,25.75,0,0,0,118.5,28.653v0.061q0,9.4,3.968,14.5a20.408,20.408,0,0,0,9.552,7.019,95.014,95.014,0,0,0,14.5,3.448l0.915,0.183a1.238,1.238,0,0,0,.4.061,1.27,1.27,0,0,1,.4.061,69.3,69.3,0,0,1,9.857,2.411,14.416,14.416,0,0,1,6.225,4.028,10.683,10.683,0,0,1,2.411,7.355v0.061a11.473,11.473,0,0,1-5.31,10.1q-5.31,3.571-14.953,3.571a38.821,38.821,0,0,1-13.245-2.2,35.057,35.057,0,0,1-11.17-6.592l-7.751,9.521a45.267,45.267,0,0,0,9.308,6.1,45.826,45.826,0,0,0,10.712,3.662,58.273,58.273,0,0,0,12.146,1.221h0Z"/>
  <rect class="cls-2" x="5" y="99" width="173" height="10" rx="1" ry="1"/>
</svg>
